<svg xmlns="http://www.w3.org/2000/svg" id="Layer_1" data-name="Layer 1" viewBox="684.41 222.86 551.26 634.33"><defs><style>.cls-1{fill:#0a0a0a;}</style></defs><title>vector</title><path class="cls-1" d="M774.35,372.16c4.59-7.6,51-65.26,110.12-79.21a115.48,115.48,0,0,1,13.9-1.94q6.63-.75,13.68-1.1c4.2-.25,8.54-.39,13-.39.64,0,1.3,0,1.94,0,0,0,12.6.53,24.65,1.85,2-4.34,3.93-8.51,5.69-12.49q-10.77-.45-22.3-.52c-2.38-.06-4.81-.06-7.24-.06-.89,0-2.9,0-5.78.08h0c-3.45.09-8.09.2-13.4.31-4,.11-8.38.19-12.88.33-19.93.47-42.26,1.08-45.74,1.21q-9.3.38-18.58.39h-147v10.84h8.52c40.13,0,73.13,41.62,77,80.73Z"/><path class="cls-1" d="M981.68,298.62a91.12,91.12,0,0,1,18.47,10.61q16.67,12.39,27.08,36.74t10.45,64.65q0,35.6-7,58.79T1011,506.18a68.88,68.88,0,0,1-30.59,19,134.62,134.62,0,0,1-39.45,5.43H875.25v10.81h71.89a291.59,291.59,0,0,1,31,2,83.21,83.21,0,0,1,34.43,12q16.66,10.08,29,31.74c.33.61.68,1.18,1,1.82a.91.91,0,0,0,.08.13l29.74-30.86c-.8-.44-1.59-.85-2.41-1.27-2.09-1.09-4.2-2.14-6.34-3.1a198,198,0,0,0-43.35-14.32q-21.28-4.28-33.67-5.82v-1.53q44.91-5.43,72-21.29T1100,476q14.37-18.93,18.58-37.15t4.25-29.8q0-23.21-11.22-49.52t-38.3-47.22q-30.18-24-65-29c-6.09-.88-12.43-1.68-19-2.31C987.06,286.41,984.56,292.25,981.68,298.62Z"/><path class="cls-1" d="M1226.78,771q5.06-3.47,8.89-6.56l-7-8.53a51.33,51.33,0,0,1-19.35,12.4,62.51,62.51,0,0,1-20.88,3.87q-22.42,0-32.51-16.27a120.12,120.12,0,0,1-14.7-36.36c-2-8.78-2.86-47.71-4.15-60.85a183.55,183.55,0,0,0-6.58-35.23q-7.69-26.29-26.32-42.94-4.85-4.37-9.93-8.23l-42.06,43.21c0,.08,0,.17.06.25a210.83,210.83,0,0,1,4.74,31.72s4.15,54.65,8,69.36,10,27.08,18.2,37.15,19.23,17.67,32.89,22.83,30.84,7.73,51.45,7.73a168.54,168.54,0,0,0,27.49-1.92,96.55,96.55,0,0,0,19-5.05A63.53,63.53,0,0,0,1226.78,771Z"/><path class="cls-1" d="M815.16,590.93c92.44-15.25,166.68-24.28,193.05,33.75a89.59,89.59,0,0,1,3.71,9.44c-10,8.94-39.84,33.88-72.55,64-66.73,61.38-145.2,144.38-89.91,157.3C887.68,864.54,937.07,838,977,783.49c38.41-52.6,48-101.71,44.72-136.72a102.64,102.64,0,0,0-1.45-10.8c36.44-34.57,67-69.47,97.64-104.63a3.28,3.28,0,0,0-2.49-5.57,3.38,3.38,0,0,0-2.23,1c-33.06,36.33-62.71,70.22-94.05,100.37-1.43-3.21-2.94-6.23-4.53-9.11C982.28,559.22,917.53,567,816.45,583c-91.25,14.73-67.58-38.74,14.43-175.88,15.45-25.87,30.1-48.4,43.71-67.88,1.68-2.38,3.29-4.69,4.91-6.94,3.76-5.27,7.44-10.26,11-15,1.75-2.36,3.48-4.67,5.24-6.92,1.15-1.51,2.33-3,3.45-4.47.74-1,1.49-1.92,2.23-2.85s1.51-1.87,2.22-2.8c-1.43.11-2.83.24-4.2.41-3.43.38-6.61.82-9.68,1.29-19.7,25.38-42.37,57.92-68.27,99C723.93,555.1,728.71,605.5,815.16,590.93Zm197.14,65.55c-2.19,36.93-20.8,82.37-44.94,115.4-50.68,69.53-101.77,79.87-114.83,75-39.23-14.43,20.55-77.29,78.31-130.3,6.12-5.65,12.24-11.17,18.22-16.52,29.6-26.47,63.29-57,63.29-57A106.58,106.58,0,0,1,1012.3,656.48Z"/><path class="cls-1" d="M927.78,268.6c1.05,0,2.1,0,3.12,0,.31-.3.58-.6.86-.91,12.44-13,22.86-22.08,30.93-27.61.55-.39,1.07-.75,1.57-1,1.83-1.22,3.54-2.21,5.09-3,.36-.19.69-.39,1-.55l1.93-.89,1.14-.44c.36-.14.72-.25,1-.36,2.9-.91,5-.8,6.19.19a2.56,2.56,0,0,1,.77,1.33c.56,1.85.2,5.11-.91,9.56-.52,2.08-1.22,4.43-2.07,7-.17.56-.36,1.14-.58,1.75-1.63,4.75-3.71,10.17-6.19,16.16-.56,1.36-1.14,2.77-1.75,4.21-.35.85-.71,1.71-1.1,2.59s-.77,1.83-1.19,2.77c-1.16,2.62-2.35,5.3-3.59,8.07-.78,1.74-1.61,3.51-2.43,5.31-1.11,2.4-2.24,4.86-3.4,7.32-.25.55-.53,1.11-.81,1.66-.71,1.57-1.49,3.15-2.26,4.75-.25.53-.5,1-.72,1.52-.89,1.85-1.8,3.73-2.74,5.61-7.76,15.92-16.41,32.73-25.07,48.84l-2.07,3.84c-.39.72-.77,1.47-1.19,2.19-7.13,13.12-14.18,25.67-20.7,36.76-35.76,60.3-60.2,95.57-63.46,99.33s3.13,5.28,6.58,2.76c2.35-1.35,20.67-24.95,64.65-96,1.74-2.79,3.56-5.8,5.5-9,1-1.6,1.93-3.26,2.93-4.95,7-11.83,14.9-25.76,22.88-40.51q1.71-3.17,3.4-6.36c5.14-9.62,10.26-19.49,15.09-29.27.53-1.11,1.08-2.18,1.61-3.26,2.15-4.34,4.23-8.65,6.19-12.91.52-1.05,1-2.13,1.49-3.18,1.05-2.21,2.07-4.39,3-6.58.41-.94.86-1.88,1.24-2.82s.92-2,1.36-3.06q2.12-4.77,4-9.32c1.16-2.82,2.26-5.58,3.31-8.26.72-1.88,1.42-3.71,2.08-5.5,1-2.68,1.91-5.28,2.71-7.77.47-1.41.91-2.79,1.3-4.12.16-.55.33-1.1.49-1.63.36-1.27.69-2.51,1-3.7s.63-2.6.91-3.82c.11-.52.22-1,.3-1.52.09-.33.14-.63.2-.94s.16-.88.24-1.29a55.26,55.26,0,0,0,.67-5.56c0-.64.05-1.24.05-1.85,0-4.37-1-7.49-3.23-9a15,15,0,0,0-8.35-2.32c-.44,0-.88,0-1.35,0a6.17,6.17,0,0,0-.94.08c-.31,0-.61.06-.91.11a6.74,6.74,0,0,0-1,.17,33.14,33.14,0,0,0-5.94,1.69,14.44,14.44,0,0,0-1.44.58c-.5.19-1,.41-1.49.63a66.43,66.43,0,0,0-6.39,3.35l-1.68,1c-1.13.69-2.32,1.46-3.51,2.29-.61.42-1.22.83-1.83,1.28-1.85,1.29-3.76,2.7-5.72,4.31-.66.52-1.32,1.05-2,1.6s-1.35,1.11-2,1.69-1.38,1.18-2.08,1.79c-1.41,1.22-2.84,2.49-4.28,3.84-5.11,4.68-10.61,10.15-16.42,16.42-.72.75-1.41,1.52-2.15,2.3s-1.66,1.82-2.49,2.76c1.66-.06,3.18-.08,4.5-.11C924.79,268.62,926.87,268.6,927.78,268.6Z"/></svg>