<svg id="Слой_1" data-name="Слой 1" xmlns="http://www.w3.org/2000/svg" viewBox="0 0 2000 2000"><path d="M1834.93,999.55c-5.45,470.86-379.71,840.62-845.5,835.32-462.18-5.25-829.63-384.16-824.3-850,5.22-455.71,385.26-824,843.33-819.76C1460.94,169.34,1834.86,537.52,1834.93,999.55ZM672.71,667.42c-88.44.51-147.28,60.21-147.41,148.37q-.25,183.12,0,366.22c.11,91.19,58.6,150,150.09,150.17q323.76.43,647.51,0c94.29-.13,151.71-58.31,151.79-152.75q.13-180.93-.06-361.86c-.09-90.92-59.16-150.06-150-150.18C1216.3,667.23,781.72,666.79,672.71,667.42Zm235,138V1158l267.57-176.4Z"/></svg>